<?xml version="1.0" standalone="no"?>
<!DOCTYPE svg PUBLIC "-//W3C//DTD SVG 20010904//EN"
 "http://www.w3.org/TR/2001/REC-SVG-20010904/DTD/svg10.dtd">
<svg version="1.0" xmlns="http://www.w3.org/2000/svg"
 width="600.000000pt" height="600.000000pt" viewBox="0 0 600.000000 600.000000"
 preserveAspectRatio="xMidYMid meet">

<g transform="translate(0.000000,600.000000) scale(0.100000,-0.100000)"
fill="#000000" stroke="none">
<path d="M3276 4690 l-49 -18 41 -4 c23 -2 51 0 62 4 14 5 36 0 67 -16 l46
-23 -23 -16 c-19 -13 -26 -14 -44 -2 -18 11 -27 11 -60 0 l-38 -13 6 29 c6 33
0 34 -54 15 -19 -7 -41 -25 -50 -42 -9 -16 -23 -29 -31 -30 -8 0 -32 -6 -53
-12 -43 -12 -60 -8 -52 14 8 20 -20 18 -96 -6 -34 -11 -76 -20 -93 -20 -16 0
-79 -13 -140 -29 -60 -17 -166 -41 -235 -56 -155 -32 -217 -49 -289 -82 -31
-14 -60 -25 -65 -24 -5 1 -6 -5 -3 -13 4 -9 -7 -26 -28 -44 -18 -17 -31 -32
-28 -35 2 -3 -4 -10 -15 -16 -11 -6 -28 -18 -37 -28 -14 -14 -18 -14 -26 -2
-5 8 -9 21 -9 30 0 18 51 97 77 121 27 24 213 83 338 108 201 40 419 89 465
104 62 22 34 17 -285 -48 -423 -86 -473 -100 -518 -144 -21 -20 -54 -61 -74
-89 -20 -29 -44 -53 -52 -53 -38 0 -171 -93 -254 -177 -47 -49 -94 -99 -105
-113 -27 -35 -70 -120 -78 -155 -4 -16 14 11 40 60 26 50 57 101 69 115 52 59
294 240 322 240 7 0 53 -40 104 -89 l92 -88 -33 -31 c-57 -54 -82 -74 -110
-88 -16 -8 -28 -20 -28 -27 -3 -87 -37 -167 -98 -227 -26 -25 -47 -44 -49 -42
-16 13 22 -92 47 -128 9 -14 39 -82 66 -152 l49 -126 38 -6 c28 -5 49 0 87 19
27 14 54 25 59 25 5 0 44 -44 88 -97 43 -54 80 -100 83 -103 3 -3 28 -32 55
-65 28 -33 81 -94 118 -135 65 -71 68 -77 63 -115 -6 -56 -45 -217 -55 -234
-7 -11 -23 -8 -87 17 -167 64 -222 85 -294 118 -80 36 -100 41 -100 24 0 -5
-7 -10 -16 -10 -8 0 -13 4 -10 9 8 12 -89 248 -168 412 -40 82 -39 104 2 114
27 7 27 7 7 23 -11 10 -31 31 -43 47 -13 17 -51 59 -84 95 -108 115 -153 164
-182 200 -34 42 -33 34 19 -100 53 -136 53 -134 -2 -171 -48 -33 -120 -91
-174 -141 -20 -18 -29 -36 -29 -57 0 -45 -21 -38 -48 17 -30 60 -171 270 -260
387 -72 96 -205 218 -261 242 -31 13 -36 13 -60 -5 -33 -25 -32 -66 2 -127 72
-127 266 -515 281 -560 5 -16 0 -14 -19 8 -14 15 -25 26 -25 23 0 -2 23 -52
52 -110 50 -104 57 -151 14 -92 -27 37 -70 85 -62 69 4 -6 2 -14 -3 -18 -14
-8 -71 73 -127 180 -26 50 -63 119 -83 155 -88 154 -98 189 -85 273 6 31 10
37 26 31 17 -5 18 -3 9 14 -6 12 -11 32 -11 46 0 14 -5 28 -10 31 -17 10 -37
-52 -55 -170 -42 -264 20 -659 140 -900 20 -38 32 -61 29 -50 -83 250 -97 307
-109 430 -18 176 -8 185 33 28 92 -351 88 -338 167 -498 30 -60 57 -122 59
-137 2 -14 10 -37 17 -50 21 -41 121 -181 194 -273 89 -112 95 -122 60 -99
l-28 19 18 -30 19 -30 -33 30 c-30 27 -59 63 -183 226 -88 115 -91 118 -57 54
69 -130 189 -281 309 -391 188 -170 336 -282 492 -370 227 -127 244 -134 313
-134 71 0 120 14 153 43 46 42 24 127 -94 359 -73 146 -194 339 -179 288 4
-14 4 -22 0 -18 -13 12 -15 81 -4 108 5 14 31 39 58 56 45 30 50 31 99 22 65
-13 85 -8 154 42 l57 40 -60 127 c-33 70 -58 135 -56 145 3 10 1 16 -4 12 -5
-3 -9 0 -9 6 0 17 33 7 35 -11 2 -8 26 -64 54 -123 53 -110 91 -209 91 -235 0
-8 14 -36 31 -63 32 -50 95 -88 146 -88 14 0 89 -12 167 -26 77 -14 206 -34
286 -45 151 -20 375 -26 384 -10 4 5 41 28 84 51 42 23 113 66 157 95 44 28
118 76 165 105 124 79 250 175 276 212 20 30 23 47 26 165 2 72 6 129 9 127 3
-2 13 47 23 109 23 151 25 159 38 151 13 -9 4 -134 -20 -259 l-18 -90 75 -2
c71 -2 77 -1 124 33 48 34 52 35 110 29 45 -6 67 -14 85 -32 27 -27 27 -41 2
-238 -15 -113 -8 -434 11 -489 18 -54 47 -70 112 -63 80 8 164 53 212 113 168
211 249 343 363 584 115 243 160 396 182 619 9 97 14 409 6 400 -2 -2 -6 -89
-9 -194 -7 -200 -8 -208 -81 -461 -33 -119 -62 -191 -73 -181 -3 3 11 63 31
134 55 200 60 241 53 488 -7 249 -20 413 -43 530 -22 111 -76 304 -114 405
-23 64 -27 80 -13 64 29 -32 54 -85 46 -97 -3 -7 -2 -9 2 -4 15 13 63 -106 94
-238 17 -71 40 -157 51 -190 11 -33 26 -96 34 -140 l14 -80 1 60 c2 124 -53
378 -115 532 -118 294 -304 519 -398 483 -40 -15 -115 -165 -151 -299 -22 -83
-72 -393 -80 -493 -5 -64 -11 -88 -20 -88 -8 0 -17 9 -20 21 -9 27 -48 42
-175 69 -58 12 -110 24 -116 25 -6 2 -14 17 -17 35 -9 43 -23 30 -32 -27 -7
-48 -25 -89 -55 -128 -24 -30 -41 -75 -30 -76 6 -1 16 -2 22 -3 10 -1 14 -60
16 -250 l3 -248 -27 6 c-14 4 -33 13 -41 21 -8 8 -39 31 -69 51 -30 20 -57 41
-61 47 -7 11 -6 149 2 241 4 41 2 46 -13 42 -9 -3 -39 -10 -65 -15 -26 -5 -49
-10 -51 -12 -2 -2 -20 -65 -41 -139 -20 -74 -52 -184 -71 -245 -18 -60 -43
-150 -54 -200 -74 -327 -89 -364 -149 -389 -23 -8 -80 -25 -128 -35 -80 -18
-204 -58 -142 -46 24 4 27 1 33 -33 11 -68 7 -209 -6 -220 -21 -17 -96 -33
-123 -26 -17 4 -27 15 -31 33 -3 14 -20 63 -36 108 -33 90 -32 113 6 113 14 0
28 4 31 10 8 13 -9 12 -80 -5 -33 -8 -101 -14 -152 -15 l-92 0 -103 90 c-57
49 -116 106 -133 127 -23 30 -14 25 45 -27 41 -36 103 -90 138 -119 l63 -54
177 22 c286 36 484 81 535 122 28 22 49 79 107 294 17 66 56 199 86 295 57
186 94 327 94 357 0 14 14 21 62 33 l63 15 26 100 c21 82 66 211 103 296 6 14
-3 17 -51 23 -63 7 -155 45 -190 78 -12 12 -27 36 -33 54 -8 24 -18 34 -33 35
-12 1 -49 3 -82 5 -198 11 -222 15 -209 35 11 18 149 106 208 133 l59 27 -27
19 c-16 10 -53 42 -84 71 -66 64 -58 69 72 44 110 -20 138 -32 270 -119 130
-85 192 -145 235 -226 l32 -60 -12 -80 c-11 -80 -4 -143 11 -90 4 14 8 62 9
108 2 77 0 88 -29 139 -70 124 -93 146 -250 248 -136 88 -219 116 -356 119
-86 2 -106 6 -132 25 -47 33 -139 71 -170 70 -15 0 -49 -9 -76 -19z m1658 -82
c7 -18 16 -41 20 -52 5 -15 9 -16 22 -5 14 11 20 8 48 -24 28 -33 34 -51 50
-150 25 -156 32 -327 16 -426 -7 -45 -16 -84 -21 -87 -5 -3 -9 -2 -10 3 0 4
-2 19 -4 33 -2 14 -7 68 -10 120 -7 122 -26 269 -35 275 -4 2 -8 -33 -9 -78
-2 -146 -26 -415 -36 -426 -3 -2 -5 20 -6 50 0 30 -2 140 -4 244 -2 178 -5
200 -39 350 -21 88 -41 168 -47 177 -13 26 -12 28 22 28 25 0 32 -6 43 -32z
m-1426 -4 c33 -26 34 -29 29 -76 -4 -33 -31 -100 -76 -193 -67 -138 -91 -174
-91 -140 0 9 -4 13 -10 10 -17 -10 -11 4 10 25 11 11 20 27 20 35 0 8 18 54
39 102 22 49 46 112 55 141 15 52 15 52 -11 76 -14 13 -22 29 -19 35 10 16 15
14 54 -15z m95 -94 c3 -11 1 -18 -4 -14 -5 3 -9 12 -9 20 0 20 7 17 13 -6z
m-629 1 c3 -5 -34 -39 -82 -75 -48 -37 -107 -83 -132 -102 -44 -36 -45 -36
-115 -29 -144 13 -191 26 -178 48 4 7 24 34 43 59 40 53 48 56 295 83 119 14
146 18 162 24 1 1 4 -3 7 -8z m-624 -280 c0 -13 -140 -141 -168 -154 -15 -7
-26 -7 -30 -1 -4 5 -31 31 -59 57 -52 47 -53 48 -28 57 96 36 285 64 285 41z
m918 -100 c29 -39 52 -74 52 -79 0 -15 -93 -39 -365 -92 -143 -28 -307 -62
-364 -76 -66 -17 -107 -22 -113 -16 -10 10 36 157 56 179 27 29 540 149 647
152 33 1 39 -4 87 -68z m82 19 c0 -5 -2 -10 -4 -10 -3 0 -8 5 -11 10 -3 6 -1
10 4 10 6 0 11 -4 11 -10z m1078 -297 c13 -18 17 -93 5 -93 -16 0 -30 16 -36
40 -5 19 -18 29 -53 40 -26 8 -49 21 -52 29 -7 21 119 6 136 -16z m-841 -80
c127 -113 132 -119 133 -157 0 -58 -137 -421 -147 -390 -2 5 24 90 57 188 33
99 60 189 60 201 0 12 -9 30 -20 40 -11 10 -20 24 -20 31 0 6 -15 21 -32 31
-18 11 -57 42 -87 69 -29 27 -60 53 -67 57 -14 8 -10 27 6 27 4 0 57 -43 117
-97z m-385 61 c-50 -22 -434 -96 -444 -86 -10 10 105 45 202 62 242 41 293 46
242 24z m229 -92 c63 -42 170 -147 165 -162 -2 -8 -14 -48 -25 -89 -12 -40
-30 -89 -40 -110 -10 -20 -28 -79 -41 -131 -12 -52 -33 -118 -46 -147 -12 -28
-31 -78 -40 -110 -27 -92 -44 -122 -78 -132 -69 -22 -117 -31 -245 -46 -112
-14 -138 -14 -159 -4 -13 8 -75 74 -137 149 -62 74 -141 162 -175 195 -76 74
-147 164 -155 196 -7 30 69 215 94 228 17 9 207 53 546 125 294 62 299 63 336
38z m-857 -47 c-10 -8 -32 -17 -47 -20 -32 -8 -44 -25 -107 -144 -25 -47 -50
-87 -57 -89 -19 -5 0 55 44 143 44 85 75 113 143 125 43 8 49 4 24 -15z m1850
-12 c7 -24 -7 -76 -22 -81 -13 -4 -15 19 -6 67 7 34 20 40 28 14z m-2355 -133
c40 -39 70 -74 67 -77 -8 -9 -133 26 -193 54 -50 24 -51 25 -42 55 4 17 16 39
25 49 15 16 19 17 43 4 14 -7 59 -46 100 -85z m2335 23 c37 -7 66 -30 66 -52
0 -13 -13 -17 -60 -19 -57 -2 -60 -1 -57 20 1 13 7 27 12 31 6 4 -3 5 -20 2
-16 -3 -24 -2 -17 1 10 5 10 9 0 22 -11 13 -10 14 16 8 15 -4 42 -10 60 -13z
m171 -45 c9 -9 -58 -480 -76 -533 -12 -38 -56 -105 -69 -105 -5 0 -14 10 -21
22 -10 19 -7 25 27 54 32 27 37 36 28 50 -6 10 -16 20 -23 22 -10 3 -10 0 0
-16 19 -30 7 -35 -56 -27 -43 5 -54 9 -46 19 8 9 6 18 -5 32 -8 10 -12 12 -8
4 7 -13 6 -13 -12 0 -10 8 -21 16 -24 19 -3 2 16 1 43 -1 32 -4 47 -2 47 6 0
7 20 28 44 48 52 44 61 70 33 95 -19 18 -20 18 -6 -4 17 -29 10 -35 -51 -41
-47 -4 -66 7 -40 23 8 5 7 12 -2 22 -20 25 -19 46 2 40 21 -5 86 45 120 93 19
26 19 30 4 45 -20 19 -32 12 -14 -10 10 -12 8 -16 -15 -25 -30 -11 -68 -13
-78 -4 -10 11 13 45 26 38 7 -3 1 3 -13 15 -15 12 -29 16 -34 11 -7 -7 -66 13
-66 23 0 1 31 1 69 -1 68 -4 69 -3 105 34 20 20 36 44 36 52 0 11 8 13 36 9
20 -3 38 -7 39 -9z m-2225 -148 c0 -49 20 -90 69 -146 59 -67 113 -146 92
-134 -25 13 -125 124 -162 179 -37 56 -41 141 -7 141 4 0 8 -18 8 -40z m2030
19 c0 -6 -4 -7 -10 -4 -5 3 -10 11 -10 16 0 6 5 7 10 4 6 -3 10 -11 10 -16z
m-1961 -43 c6 -22 6 -35 1 -30 -4 5 -11 27 -14 49 -7 45 -2 38 13 -19z m-815
-88 c-3 -12 -18 -31 -32 -43 -25 -22 -26 -24 -13 -71 24 -95 24 -97 13 -90 -6
3 -29 33 -51 66 -49 72 -45 95 25 140 50 31 69 31 58 -2z m2207 -100 c6 -24
13 -59 16 -78 4 -34 40 -219 49 -252 3 -10 -10 -32 -33 -56 -21 -22 -66 -69
-100 -105 -35 -36 -65 -62 -67 -59 -2 4 7 48 20 97 13 50 33 146 44 215 10 69
26 156 35 195 8 38 15 73 15 77 0 21 10 3 21 -34z m-2199 -158 c15 -34 16 -35
42 -15 21 16 56 20 56 8 0 -15 -15 -28 -30 -28 -8 0 -15 -6 -15 -14 0 -8 -19
-22 -42 -32 -46 -20 -56 -11 -29 26 12 16 11 21 -5 39 -22 23 -25 46 -5 46 8
0 20 -13 28 -30z m1138 -125 c183 -173 187 -175 391 -146 330 45 343 34 29
-25 -173 -32 -250 -36 -250 -13 0 5 -17 17 -37 28 -35 18 -263 239 -263 255 0
13 57 -30 130 -99z m2466 70 c5 -13 -8 -65 -68 -255 -24 -76 -108 -240 -123
-240 -6 0 -17 16 -24 36 -14 39 -9 109 15 229 22 105 46 147 117 200 66 49 75
52 83 30z m-3661 -85 c9 -14 87 -46 100 -41 26 9 75 18 75 14 0 -3 -8 -12 -18
-21 -10 -10 -13 -14 -7 -10 7 4 15 5 18 1 10 -10 -31 -35 -45 -27 -7 4 -8 3
-4 -4 5 -8 -4 -12 -29 -12 -53 0 -43 -29 20 -54 28 -12 57 -25 65 -31 8 -5 23
-8 33 -7 13 3 17 -4 17 -25 0 -21 3 -24 10 -13 7 12 12 12 21 3 14 -14 8 -17
-48 -27 -25 -4 -32 -1 -35 12 -3 14 -6 13 -17 -7 -11 -20 -11 -26 5 -42 24
-23 125 -50 140 -37 7 5 21 10 32 13 18 3 19 0 11 -27 -8 -30 -8 -30 11 -13
24 22 62 13 39 -10 -19 -19 -118 -57 -130 -50 -5 4 -5 14 1 26 6 10 8 19 6 19
-11 0 -37 -62 -32 -75 3 -8 25 -17 50 -20 47 -7 57 -22 37 -53 -7 -11 -16 -10
-47 6 -22 11 -49 31 -60 44 -26 28 -194 276 -253 372 -39 65 -41 70 -25 87 19
21 49 25 59 9z m223 -4 c-10 -7 -16 -15 -13 -18 3 -2 -2 -5 -10 -5 -23 0 -18
16 8 27 31 12 35 11 15 -4z m1092 -46 c0 -5 -2 -10 -4 -10 -3 0 -8 5 -11 10
-3 6 -1 10 4 10 6 0 11 -4 11 -10z m1397 -166 c-14 -45 -19 -37 -11 15 4 25
10 38 14 31 4 -7 3 -27 -3 -46z m918 -45 c-5 -15 -4 -19 4 -15 15 10 13 -4 -4
-34 -8 -14 -14 -19 -15 -12 0 7 -5 10 -10 7 -8 -5 -8 -11 0 -20 7 -9 8 -14 0
-17 -5 -1 -12 -14 -15 -28 -3 -14 -9 -26 -15 -28 -5 -2 -10 -10 -10 -18 0 -25
-112 -186 -132 -192 -16 -4 -17 -7 -6 -14 9 -7 8 -8 -6 -4 -14 5 -17 3 -12
-11 5 -13 4 -15 -4 -7 -9 9 8 43 64 133 42 68 76 127 76 132 0 5 7 12 15 15 8
4 12 10 9 15 -3 5 2 9 11 9 9 0 15 6 12 13 -6 18 12 49 25 41 7 -4 8 -3 4 5
-7 11 1 51 10 51 3 0 2 -10 -1 -21z m-2186 -190 c-12 -23 3 -33 47 -31 32 1
33 0 21 -20 -17 -30 -45 -58 -57 -58 -16 0 -192 61 -220 76 l-25 13 31 1 c16
0 35 5 42 12 7 7 12 9 12 6 0 -4 24 0 53 9 28 8 57 16 64 17 7 1 16 5 20 9 12
12 22 -16 12 -34z m676 -19 c-6 -10 -180 -141 -205 -155 -35 -18 32 39 115 99
94 68 100 72 90 56z m1209 -38 c-21 -152 -56 -247 -136 -368 -48 -72 -61 -81
-119 -85 -62 -5 -64 20 -5 60 25 18 60 53 78 79 30 44 148 313 148 339 0 12
20 23 32 16 4 -2 4 -20 2 -41z m-105 -85 c-22 -95 -88 -215 -145 -263 -56 -49
-82 -54 -109 -24 -21 23 -16 25 19 9 23 -11 29 -7 88 56 76 81 78 85 120 204
34 98 49 108 27 18z m-2008 17 l36 -35 17 25 c10 16 26 26 41 26 37 0 30 -17
-15 -40 -51 -26 -62 -25 -90 5 -30 32 -41 31 -71 -1 l-24 -26 29 -22 c16 -11
62 -49 102 -83 40 -35 75 -63 78 -63 8 0 86 169 86 186 0 8 5 14 10 14 6 0 10
-3 10 -7 0 -14 -95 -213 -102 -213 -3 0 -53 38 -109 85 -57 47 -106 85 -111
85 -18 0 -6 26 29 62 20 21 39 38 42 38 3 0 22 -16 42 -36z m879 -19 c0 -9
-123 -65 -129 -60 -11 12 49 42 127 64 1 1 2 -1 2 -4z m1287 -69 c-4 -11 -1
-13 10 -9 11 4 6 -8 -14 -38 -41 -59 -69 -83 -88 -75 -18 7 -19 5 55 94 37 44
45 51 37 28z m-3037 -140 c0 -12 -5 -7 -19 24 -11 24 -11 24 3 6 9 -11 16 -24
16 -30z m-627 12 c47 -10 70 -22 107 -55 45 -41 130 -155 164 -220 17 -34 22
-93 7 -93 -16 0 -133 91 -190 149 -92 93 -192 212 -186 222 8 12 27 11 98 -3z
m234 -396 c89 -67 189 -133 250 -165 137 -70 140 -85 6 -35 -99 37 -381 231
-439 303 -16 19 -41 50 -56 69 -45 54 -33 52 32 -6 33 -29 126 -104 207 -166z
m130 144 c38 -40 100 -107 139 -151 39 -44 99 -100 134 -124 82 -58 66 -32
-35 55 -84 73 -111 101 -200 203 -95 110 -60 89 78 -45 217 -213 338 -307 369
-288 6 4 8 3 5 -3 -4 -6 0 -13 8 -16 10 -4 12 -1 9 11 -5 15 -4 15 9 -1 11
-14 16 -15 20 -5 4 9 6 7 6 -4 1 -11 6 -15 16 -12 11 5 13 2 9 -10 -3 -9 -15
-16 -25 -16 -21 0 -26 -16 -6 -23 18 -7 -21 -34 -61 -42 -38 -7 -84 1 -123 21
-29 15 -113 88 -165 144 -99 107 -124 136 -124 141 0 3 -12 22 -27 41 -61 76
-79 102 -105 147 -42 72 -11 61 69 -23z"/>
<path d="M2647 4436 c-52 -10 -87 -32 -87 -55 0 -9 51 -29 92 -36 35 -7 41 -4
88 41 27 27 50 52 50 57 0 10 -73 7 -143 -7z"/>
<path d="M3311 3566 c-9 -11 -7 -15 9 -19 21 -5 26 -32 11 -56 -5 -8 -18 -12
-30 -8 -29 7 -28 -18 2 -37 47 -30 65 -29 97 3 37 36 38 60 4 100 -28 34 -73
42 -93 17z"/>
<path d="M2650 3415 c-10 -12 -10 -15 3 -15 24 0 47 -28 40 -48 -9 -23 -25
-33 -45 -26 -25 8 -22 -12 4 -30 35 -25 76 -20 109 13 35 36 37 64 4 96 -28
29 -95 35 -115 10z"/>
<path d="M3292 3303 c-4 -10 -19 -53 -33 -95 -13 -43 -27 -78 -30 -78 -3 0
-30 15 -60 33 -106 63 -98 64 -159 -14 -30 -38 -59 -69 -65 -69 -5 1 -39 28
-75 60 -64 59 -83 69 -95 50 -8 -13 165 -179 180 -173 5 2 35 35 65 74 30 38
60 69 66 69 6 0 22 -8 35 -18 34 -26 116 -72 127 -72 6 0 17 19 26 43 43 113
63 182 59 194 -7 19 -31 16 -41 -4z"/>
<path d="M4355 3230 c3 -5 8 -10 11 -10 2 0 4 5 4 10 0 6 -5 10 -11 10 -5 0
-7 -4 -4 -10z"/>
<path d="M4380 3210 c0 -5 5 -10 10 -10 6 0 10 5 10 10 0 6 -4 10 -10 10 -5 0
-10 -4 -10 -10z"/>
<path d="M5101 2434 c0 -11 3 -14 6 -6 3 7 2 16 -1 19 -3 4 -6 -2 -5 -13z"/>
<path d="M3178 4663 c6 -2 18 -2 25 0 6 3 1 5 -13 5 -14 0 -19 -2 -12 -5z"/>
<path d="M1480 3688 c0 -38 11 -88 20 -88 7 0 -8 101 -16 109 -2 2 -4 -7 -4
-21z"/>
<path d="M760 3445 c0 -12 143 -295 147 -291 5 4 -113 252 -132 278 -8 13 -15
18 -15 13z"/>
<path d="M2088 3188 c-50 -25 -57 -32 -48 -48 6 -11 26 -20 57 -24 122 -17
121 -16 164 -64 71 -80 84 -120 82 -250 -2 -112 -1 -113 20 -107 12 4 34 15
48 25 14 10 49 30 78 45 l52 28 -63 66 c-35 36 -81 88 -103 115 -114 139 -212
247 -223 245 -4 -1 -33 -14 -64 -31z"/>
<path d="M3228 2523 c7 -3 16 -2 19 1 4 3 -2 6 -13 5 -11 0 -14 -3 -6 -6z"/>
</g>
</svg>
